<?xml version="1.0" standalone="no"?>
<!DOCTYPE svg PUBLIC "-//W3C//DTD SVG 20010904//EN"
 "http://www.w3.org/TR/2001/REC-SVG-20010904/DTD/svg10.dtd">
<svg version="1.0" xmlns="http://www.w3.org/2000/svg"
 width="750.000000pt" height="690.000000pt" viewBox="0 0 750.000000 690.000000"
 preserveAspectRatio="xMidYMid meet">

<g transform="translate(0.000000,690.000000) scale(0.100000,-0.100000)"
fill="#000000" stroke="none">
<path d="M0 3450 l0 -3450 3750 0 3750 0 0 3450 0 3450 -3750 0 -3750 0 0
-3450z m4130 2365 c379 -59 716 -182 1035 -380 402 -248 756 -636 967 -1060
130 -259 209 -514 260 -830 20 -128 17 -612 -5 -754 -75 -478 -243 -868 -538
-1249 -437 -565 -1077 -924 -1800 -1008 -192 -22 -549 -15 -719 15 -871 150
-1575 665 -1964 1439 -121 240 -201 491 -253 796 -23 130 -25 622 -5 761 151
1010 826 1829 1772 2149 209 70 439 121 630 140 102 9 518 -3 620 -19z"/>
<path d="M3484 5725 c-147 -17 -222 -29 -334 -57 -464 -112 -869 -338 -1206
-673 -302 -300 -501 -622 -634 -1025 -126 -383 -155 -853 -79 -1265 135 -734
593 -1376 1251 -1753 714 -409 1618 -442 2364 -88 219 105 355 192 554 357
448 371 770 920 869 1484 112 641 2 1253 -322 1795 -201 336 -493 632 -842
854 -195 124 -488 248 -735 311 -246 63 -635 89 -886 60z m497 -55 c543 -54
1008 -254 1419 -610 405 -351 685 -829 799 -1363 67 -313 68 -709 1 -1032
-137 -665 -543 -1242 -1135 -1616 -200 -126 -413 -216 -685 -293 -181 -50
-482 -81 -714 -73 -613 22 -1134 231 -1602 644 -84 73 -219 223 -311 344 -389
514 -561 1150 -488 1806 98 875 682 1656 1498 2002 376 160 824 230 1218 191z"/>
<path d="M2282 3696 c-51 -18 -95 -35 -98 -39 -3 -3 6 -13 20 -22 14 -10 26
-22 26 -28 0 -20 -137 -162 -225 -232 -113 -90 -183 -135 -310 -197 -86 -43
-94 -49 -59 -44 59 8 188 53 269 94 113 56 223 134 323 228 l93 87 29 -21 28
-21 6 52 c19 166 19 177 5 176 -8 0 -56 -15 -107 -33z"/>
<path d="M2660 3383 c-34 -82 -65 -154 -67 -160 -4 -9 5 -13 26 -13 26 0 34 6
48 35 l17 36 71 -3 c68 -3 70 -4 84 -35 12 -27 20 -33 47 -33 l32 0 -64 158
c-35 86 -64 158 -64 160 0 1 -15 2 -34 2 l-34 0 -62 -147z m122 9 c10 -26 18
-50 18 -54 0 -5 -21 -8 -46 -8 -52 0 -52 3 -19 84 19 44 23 42 47 -22z"/>
<path d="M3032 3513 c-42 -20 -69 -55 -83 -105 -33 -125 94 -238 218 -195 38
13 43 13 60 -5 19 -18 20 -18 37 1 16 18 17 22 3 35 -13 14 -13 19 4 53 25 48
24 89 -2 138 -24 45 -53 73 -87 86 -37 14 -114 10 -150 -8z m128 -48 c43 -22
60 -53 60 -107 0 -53 -11 -60 -46 -27 -19 18 -25 19 -43 8 -20 -13 -20 -14 6
-41 23 -24 24 -28 9 -34 -31 -12 -90 4 -113 31 -31 35 -31 102 -2 139 36 46
80 56 129 31z"/>
<path d="M3457 3523 c-8 -14 -127 -301 -127 -307 0 -3 13 -6 30 -6 25 0 32 6
44 35 l15 35 71 0 71 0 15 -35 c12 -29 19 -35 44 -35 17 0 30 2 30 3 0 2 -29
73 -63 158 -61 148 -65 154 -94 157 -17 2 -33 -1 -36 -5z m59 -125 c10 -29 21
-56 22 -60 2 -4 -20 -8 -48 -8 -58 0 -56 -6 -22 77 9 24 19 43 23 43 3 0 14
-23 25 -52z"/>
<path d="M3714 3413 c2 -65 5 -137 5 -160 1 -41 2 -43 31 -43 30 0 30 0 30 56
0 54 0 55 28 52 20 -2 36 -16 62 -55 30 -46 38 -53 67 -53 18 0 33 2 33 5 0 3
-16 29 -35 58 -31 46 -33 52 -17 61 50 28 68 102 36 151 -22 33 -64 45 -161
45 l-84 0 5 -117z m178 50 c45 -40 9 -93 -64 -93 l-48 0 0 55 0 55 47 0 c29 0
53 -6 65 -17z"/>
<path d="M4180 3370 l0 -160 36 0 37 0 -6 71 c-3 38 -3 86 0 105 l6 36 44 -71
c25 -39 48 -71 51 -71 4 0 27 32 52 71 l45 70 3 -105 3 -106 29 0 30 0 0 160
0 160 -33 0 c-30 0 -36 -6 -77 -75 -24 -41 -47 -75 -50 -75 -6 1 -78 114 -87
136 -3 9 -19 14 -44 14 l-39 0 0 -160z"/>
<path d="M4665 3511 c-43 -26 -62 -51 -74 -98 -17 -64 1 -125 51 -167 47 -40
91 -51 151 -35 190 47 154 319 -42 319 -37 0 -66 -6 -86 -19z m133 -45 c76
-39 72 -167 -6 -197 -34 -13 -89 -5 -113 17 -49 44 -41 141 14 174 38 24 68
25 105 6z"/>
<path d="M4990 3420 c0 -168 29 -213 140 -214 110 -1 140 45 140 214 l0 110
-30 0 -30 0 0 -106 c0 -138 -13 -164 -81 -164 -62 0 -73 23 -77 156 l-4 114
-29 0 -29 0 0 -110z"/>
<path d="M5393 3520 c-28 -12 -43 -40 -43 -84 0 -43 30 -69 105 -91 55 -15 72
-36 59 -69 -9 -23 -81 -21 -121 4 -32 19 -33 19 -43 0 -16 -30 -13 -36 28 -53
107 -45 188 -21 199 60 7 55 -21 86 -102 113 -55 18 -65 25 -65 45 0 36 67 49
106 21 17 -13 21 -12 37 1 24 22 22 28 -17 47 -37 17 -107 20 -143 6z"/>
<path d="M5732 3453 c-17 -43 -47 -115 -66 -160 l-35 -83 30 0 c25 0 33 6 45
35 l14 35 74 0 74 0 12 -35 c10 -31 16 -35 45 -35 l32 0 -65 160 c-66 159 -66
160 -98 160 -30 0 -33 -4 -62 -77z m83 -40 c33 -79 33 -83 -19 -83 -26 0 -46
5 -46 11 0 12 41 109 46 109 2 0 11 -17 19 -37z"/>
<path d="M2304 3419 c-10 -12 -48 -44 -84 -72 -36 -28 -68 -56 -72 -62 -5 -5
-7 -140 -5 -300 l2 -290 93 -3 92 -3 0 376 c0 206 -2 375 -3 375 -2 0 -12 -9
-23 -21z"/>
<path d="M1960 3171 l-85 -46 -3 -217 -2 -218 95 0 95 0 0 265 c0 146 -3 264
-7 264 -5 -1 -46 -22 -93 -48z"/>
<path d="M1683 3057 l-82 -21 2 -170 2 -171 93 -3 92 -3 0 196 c0 150 -3 195
-12 194 -7 -1 -50 -10 -95 -22z"/>
<path d="M2580 3015 c0 -12 213 -14 1688 -12 1112 1 1689 5 1692 12 3 7 -563
11 -1687 13 -1479 2 -1693 0 -1693 -13z"/>
<path d="M2589 2828 c-4 -81 -3 -121 4 -125 4 -2 7 7 7 21 0 35 32 34 58 -1
11 -16 24 -25 28 -21 4 5 0 16 -10 27 -15 16 -15 19 -1 31 21 18 19 57 -4 70
-27 14 -81 13 -82 -2z m85 -17 c13 -21 -7 -41 -40 -41 -30 0 -34 3 -34 25 0
22 4 25 34 25 19 0 37 -4 40 -9z"/>
<path d="M2730 2770 l0 -70 45 0 c54 0 60 18 8 22 -26 2 -38 8 -38 18 0 10 12
16 38 18 50 4 47 22 -4 22 -33 0 -40 3 -37 18 2 12 14 18 41 20 52 4 46 22 -8
22 l-45 0 0 -70z"/>
<path d="M2875 2775 c-16 -36 -26 -68 -22 -71 3 -3 10 4 17 15 15 29 76 30 85
1 5 -16 25 -29 25 -16 0 13 -62 136 -69 136 -5 0 -21 -29 -36 -65z m53 11 c12
-27 7 -36 -20 -36 -20 0 -21 4 -12 38 8 28 18 28 32 -2z"/>
<path d="M3010 2771 l0 -71 40 0 c22 0 40 5 40 10 0 6 -13 10 -30 10 -30 0
-30 1 -30 54 0 30 -4 58 -10 61 -6 4 -10 -20 -10 -64z"/>
<path d="M3180 2770 l0 -70 50 0 c28 0 50 5 50 10 0 6 -18 10 -40 10 -33 0
-40 3 -40 20 0 16 7 20 35 20 19 0 35 5 35 10 0 6 -16 10 -35 10 -28 0 -35 4
-35 20 0 17 7 20 41 20 24 0 38 4 34 10 -3 6 -26 10 -51 10 l-44 0 0 -70z"/>
<path d="M3328 2829 c-30 -17 -22 -48 17 -65 19 -8 35 -21 35 -30 0 -13 -8
-15 -35 -12 -41 5 -47 -9 -8 -18 32 -8 57 6 61 34 3 16 -5 25 -32 36 -21 9
-36 22 -36 32 0 14 7 16 38 11 34 -6 35 -5 18 8 -23 17 -35 18 -58 4z"/>
<path d="M3430 2830 c0 -5 9 -10 20 -10 18 0 20 -7 20 -61 0 -37 4 -58 10 -54
5 3 9 29 7 58 -2 47 0 52 21 55 42 6 22 22 -28 22 -27 0 -50 -4 -50 -10z"/>
<path d="M3577 2793 c-14 -26 -27 -59 -31 -73 -7 -23 -6 -24 8 -6 8 10 31 20
51 22 30 2 38 -1 42 -16 3 -11 10 -20 15 -20 15 0 -32 123 -52 135 -5 3 -20
-16 -33 -42z m48 -20 c5 -20 3 -23 -19 -23 -30 0 -29 0 -16 36 11 29 23 24 35
-13z"/>
<path d="M3680 2830 c0 -5 9 -10 20 -10 18 0 20 -7 20 -60 0 -33 4 -60 10 -60
6 0 10 27 10 60 0 53 2 60 20 60 11 0 20 5 20 10 0 6 -22 10 -50 10 -27 0 -50
-4 -50 -10z"/>
<path d="M3814 2826 c-3 -7 -4 -38 -2 -67 l3 -54 48 -3 c28 -2 47 1 47 7 0 6
-18 11 -40 11 -33 0 -40 3 -40 20 0 16 7 20 35 20 19 0 35 5 35 10 0 6 -16 10
-35 10 -28 0 -35 4 -35 20 0 17 7 20 40 20 22 0 40 5 40 10 0 16 -90 12 -96
-4z"/>
<path d="M4020 2825 c-7 -8 -9 -22 -6 -31 4 -9 0 -24 -8 -33 -20 -24 -4 -61
28 -61 14 0 28 5 31 10 5 8 11 8 19 1 10 -8 13 -4 13 19 0 22 -3 27 -12 20 -9
-7 -16 -6 -25 5 -10 12 -9 18 4 30 19 20 20 27 4 43 -16 16 -33 15 -48 -3z
m36 -31 c-5 -13 -10 -14 -18 -6 -6 6 -8 18 -4 28 5 13 10 14 18 6 6 -6 8 -18
4 -28z m-8 -46 c17 -17 15 -28 -7 -28 -22 0 -35 15 -26 30 8 13 18 13 33 -2z"/>
<path d="M4197 2833 c-4 -3 -7 -35 -7 -70 l0 -63 29 0 c69 0 102 36 87 93 -8
34 -87 63 -109 40z m81 -25 c7 -7 12 -24 12 -38 0 -34 -17 -50 -52 -50 -27 0
-28 2 -28 50 0 48 1 50 28 50 15 0 33 -5 40 -12z"/>
<path d="M4350 2770 l0 -70 45 0 c25 0 45 5 45 10 0 6 -16 10 -35 10 l-35 0 0
50 0 50 35 0 c19 0 35 5 35 10 0 6 -20 10 -45 10 l-45 0 0 -70z"/>
<path d="M4470 2836 c0 -15 53 -136 60 -136 7 0 60 117 60 133 0 4 -4 7 -9 7
-5 0 -17 -22 -26 -50 -9 -27 -20 -50 -24 -50 -5 0 -16 20 -25 45 -15 38 -36
68 -36 51z"/>
<path d="M4624 2826 c-3 -8 -4 -39 -2 -68 l3 -53 48 -3 c28 -2 47 1 47 7 0 6
-18 11 -40 11 -33 0 -40 3 -40 20 0 16 7 20 35 20 19 0 35 5 35 10 0 6 -16 10
-35 10 -28 0 -35 4 -35 20 0 17 7 20 40 20 22 0 40 5 40 10 0 16 -90 12 -96
-4z"/>
<path d="M4757 2829 c-5 -9 -7 -41 -5 -70 l3 -54 43 -3 c25 -2 42 1 42 7 0 6
-16 11 -35 11 l-34 0 -3 63 c-2 39 -6 56 -11 46z"/>
<path d="M4885 2815 c-30 -30 -31 -54 -4 -89 39 -49 119 -22 119 42 0 33 -8
45 -37 61 -33 17 -51 14 -78 -14z m84 -9 c16 -19 10 -66 -10 -79 -44 -28 -95
25 -69 72 13 25 61 29 79 7z"/>
<path d="M5039 2828 c-5 -52 -4 -120 3 -124 4 -3 8 4 8 16 0 21 4 24 51 34 35
8 44 41 18 67 -21 21 -78 26 -80 7z m78 -24 c7 -19 -21 -44 -49 -44 -13 0 -18
8 -18 30 0 27 3 30 30 30 19 0 33 -6 37 -16z"/>
<path d="M5169 2823 c0 -10 -2 -39 -4 -65 -2 -26 0 -50 5 -53 6 -4 10 13 10
39 0 51 14 60 32 21 15 -32 20 -32 43 8 l20 32 3 -52 c5 -79 22 -64 22 18 0
79 -10 86 -45 31 -11 -17 -23 -31 -26 -32 -3 0 -13 16 -22 35 -18 37 -36 46
-38 18z"/>
<path d="M5340 2770 l0 -70 45 0 c25 0 45 5 45 10 0 6 -18 10 -41 10 -36 0
-40 2 -37 23 2 18 8 21 36 19 17 -2 32 1 32 7 0 5 -15 11 -32 13 -22 2 -34 9
-36 21 -3 14 4 17 37 17 23 0 41 5 41 10 0 6 -20 10 -45 10 l-45 0 0 -70z"/>
<path d="M5470 2772 c0 -51 3 -71 11 -66 6 3 9 21 6 38 -8 56 3 57 44 6 22
-28 42 -50 44 -50 3 0 5 33 4 73 -1 57 -2 66 -9 43 -5 -16 -7 -33 -4 -38 3 -4
2 -13 -2 -19 -4 -6 -24 8 -50 38 l-43 48 -1 -73z"/>
<path d="M5615 2830 c-4 -6 5 -10 20 -10 26 0 26 -1 24 -57 -2 -32 1 -58 6
-58 5 0 8 26 6 58 -2 55 -2 57 23 57 14 0 26 5 26 10 0 6 -22 10 -49 10 -28 0
-53 -4 -56 -10z"/>
<path d="M4380 2770 c0 -5 11 -10 25 -10 14 0 25 5 25 10 0 6 -11 10 -25 10
-14 0 -25 -4 -25 -10z"/>
</g>
</svg>
